<svg xmlns="http://www.w3.org/2000/svg" xmlns:xlink="http://www.w3.org/1999/xlink" viewBox="0 0 270.32 107.48"><defs><style>.cls-1{fill:#fff;}.cls-2{fill:url(#linear-gradient);}.cls-3{fill:#d3c53f;}</style><linearGradient id="linear-gradient" x1="48.16" y1="-9.47" x2="49.09" y2="91.79" gradientUnits="userSpaceOnUse"><stop offset="0" stop-color="#16bcc8"/><stop offset="0.1" stop-color="#1ab6c4"/><stop offset="0.24" stop-color="#26a5ba"/><stop offset="0.4" stop-color="#3889aa"/><stop offset="0.54" stop-color="#4d6b98"/><stop offset="1" stop-color="#6d4882"/></linearGradient></defs><g id="Layer_2" data-name="Layer 2"><g id="Layer_1-2" data-name="Layer 1"><path class="cls-1" d="M111.86,33.81V48.69h-2.93V33.81Z"/><path class="cls-1" d="M124.5,33.81v2.83h-6.37V40h5.52v2.83h-5.52v5.84H115.2V33.81Z"/><path class="cls-1" d="M141.92,33.81v2.83H138.3v12h-2.94v-12h-3.48V33.81Z"/><path class="cls-1" d="M156.77,48.69h-2.94v-6h-6.65v6h-2.94V33.81h2.94v6h6.65v-6h2.94Z"/><path class="cls-1" d="M170.26,33.81v2.83H163v3.17h6.39v2.84H163v3.21h7.5v2.83H160.1V33.81Z"/><path class="cls-1" d="M177.64,36.33a2.54,2.54,0,0,0-1.51.39,1.34,1.34,0,0,0-.53,1.15,1.53,1.53,0,0,0,.78,1.25,10.21,10.21,0,0,0,2.07,1,8.38,8.38,0,0,1,1.8.88,3.89,3.89,0,0,1,1.24,1.36,4.43,4.43,0,0,1,.5,2.21,4,4,0,0,1-.6,2.13,4.17,4.17,0,0,1-1.75,1.56,6.13,6.13,0,0,1-2.75.58,9.31,9.31,0,0,1-2.65-.4,8.33,8.33,0,0,1-2.45-1.2l1.3-2.29a6.85,6.85,0,0,0,1.76.93,5.3,5.3,0,0,0,1.78.37,3.24,3.24,0,0,0,1.62-.4,1.35,1.35,0,0,0,.68-1.28c0-.77-.72-1.44-2.16-2a19.12,19.12,0,0,1-2.12-1,4.31,4.31,0,0,1-1.47-1.33,3.7,3.7,0,0,1-.62-2.19A4,4,0,0,1,173.83,35a5.08,5.08,0,0,1,3.36-1.27,8.87,8.87,0,0,1,2.78.37,9.4,9.4,0,0,1,2.16,1.06L181,37.41A7.22,7.22,0,0,0,177.64,36.33Z"/><path class="cls-1" d="M194.51,33.81v2.83h-7.22v3.17h6.39v2.84h-6.39v3.21h7.5v2.83H184.35V33.81Z"/><path class="cls-1" d="M206.32,33.81v12h7v2.83h-9.93V33.81Z"/><path class="cls-1" d="M223.21,45.78h-4.93l-1.22,2.91h-2.89l6.72-15.47h.16l6.71,15.47h-3.39Zm-1-2.47-1.43-3.62-1.5,3.62Z"/><path class="cls-1" d="M242.83,33.81V49.3h-.08l-10.42-9.41.07,8.8h-3V33.22h.12l10.4,9.55-.06-9Z"/><path class="cls-1" d="M246.17,33.81h4.45a9,9,0,0,1,4.69,1.1A6.61,6.61,0,0,1,258,37.76a8.58,8.58,0,0,1,.84,3.75,7,7,0,0,1-1,3.78,6.67,6.67,0,0,1-2.72,2.52,8,8,0,0,1-3.75.88h-5.18Zm4.67,12a5.33,5.33,0,0,0,3.63-1.17,4.26,4.26,0,0,0,1.33-3.38,4.84,4.84,0,0,0-.74-2.83A4,4,0,0,0,253.34,37a4.83,4.83,0,0,0-1.85-.4H249.1v9.24Z"/><path class="cls-1" d="M265.83,36.33a2.48,2.48,0,0,0-1.5.39,1.32,1.32,0,0,0-.54,1.15,1.53,1.53,0,0,0,.78,1.25,10.49,10.49,0,0,0,2.07,1,8.38,8.38,0,0,1,1.8.88,3.92,3.92,0,0,1,1.25,1.36,4.44,4.44,0,0,1,.49,2.21,4,4,0,0,1-.6,2.13,4.14,4.14,0,0,1-1.74,1.56,6.18,6.18,0,0,1-2.76.58,9.31,9.31,0,0,1-2.65-.4,8.16,8.16,0,0,1-2.44-1.2L261.28,45a6.85,6.85,0,0,0,1.76.93,5.3,5.3,0,0,0,1.78.37,3.24,3.24,0,0,0,1.62-.4,1.36,1.36,0,0,0,.69-1.28c0-.77-.72-1.44-2.17-2a19.12,19.12,0,0,1-2.12-1,4.31,4.31,0,0,1-1.47-1.33,3.7,3.7,0,0,1-.61-2.19A4,4,0,0,1,262,35a5.11,5.11,0,0,1,3.37-1.27,8.8,8.8,0,0,1,2.77.37,9.4,9.4,0,0,1,2.16,1.06l-1.11,2.25A7.19,7.19,0,0,0,265.83,36.33Z"/><path class="cls-1" d="M118.29,72.66a7.56,7.56,0,0,1-2.69.47,7.84,7.84,0,0,1-4-1,6.81,6.81,0,0,1-2.63-2.72,7.83,7.83,0,0,1-.91-3.76,8.54,8.54,0,0,1,.91-4,6.62,6.62,0,0,1,2.55-2.74,7.15,7.15,0,0,1,3.78-1,8.41,8.41,0,0,1,2.51.36,9,9,0,0,1,2,.91L118.64,62a5.38,5.38,0,0,0-3.28-1.21,3.86,3.86,0,0,0-2.12.63,4.35,4.35,0,0,0-1.58,1.71,5,5,0,0,0-.59,2.39,5.44,5.44,0,0,0,.55,2.52,4,4,0,0,0,1.55,1.69,4.59,4.59,0,0,0,2.37.61,5.07,5.07,0,0,0,2-.36,4.16,4.16,0,0,0,1.38-.84l1.21,2.63A6.52,6.52,0,0,1,118.29,72.66Z"/><path class="cls-1" d="M122.63,61.76A7.74,7.74,0,0,1,125.4,59,7.44,7.44,0,0,1,133,59a8,8,0,0,1,2.79,2.8,7.44,7.44,0,0,1,0,7.59A7.85,7.85,0,0,1,133,72.11a7.59,7.59,0,0,1-7.6,0,7.61,7.61,0,0,1-2.76-2.76,7.57,7.57,0,0,1,0-7.59Zm2.63,6.17a4.65,4.65,0,0,0,1.68,1.73,4.54,4.54,0,0,0,2.36.64,4.31,4.31,0,0,0,2.28-.64,4.54,4.54,0,0,0,1.62-1.72,5.14,5.14,0,0,0,0-4.82,4.57,4.57,0,0,0-1.65-1.73,4.51,4.51,0,0,0-4.63,0,4.65,4.65,0,0,0-1.65,1.73,4.91,4.91,0,0,0-.61,2.42A4.78,4.78,0,0,0,125.26,67.93Z"/><path class="cls-1" d="M142.3,68.82a3.26,3.26,0,0,0,1.13,1.05,3,3,0,0,0,1.52.41,3.26,3.26,0,0,0,1.6-.41,3,3,0,0,0,1.14-1.05,2.44,2.44,0,0,0,.42-1.35V58.08H151v9.45a5.3,5.3,0,0,1-.81,2.88,5.56,5.56,0,0,1-2.19,2,6.53,6.53,0,0,1-3.05.72,6.45,6.45,0,0,1-3-.72,5.53,5.53,0,0,1-2.18-2,5.38,5.38,0,0,1-.8-2.88V58.08h2.94v9.39A2.44,2.44,0,0,0,142.3,68.82Z"/><path class="cls-1" d="M157,58.08v12h7V73H154V58.08Z"/><path class="cls-1" d="M166.49,58.08h4.45a9.11,9.11,0,0,1,4.7,1.1A6.78,6.78,0,0,1,178.32,62a8.59,8.59,0,0,1,.84,3.76,7.07,7.07,0,0,1-1,3.78,6.9,6.9,0,0,1-2.73,2.52,8.16,8.16,0,0,1-3.75.88h-5.18Zm4.68,12A5.31,5.31,0,0,0,174.79,69a4.26,4.26,0,0,0,1.33-3.38,4.79,4.79,0,0,0-.74-2.83,4,4,0,0,0-1.71-1.45,4.94,4.94,0,0,0-1.86-.41h-2.38v9.24Z"/><path class="cls-1" d="M196.67,58.08v2.83h-3.62V73h-2.93V60.91h-3.48V58.08Z"/><path class="cls-1" d="M205.15,70.05h-4.94L199,73h-2.89l6.71-15.48H203L209.7,73h-3.4Zm-1-2.46L202.74,64l-1.49,3.62Z"/><path class="cls-1" d="M214.29,58.08v12h7V73h-9.93V58.08Z"/><path class="cls-1" d="M226.71,64.13l.45-.57L232,58.08h3.8l-6.14,6.67L235.83,73h-3.72l-4.59-6.35-.73.72V73h-3V58.08h3v5.3Z"/><polygon class="cls-2" points="48.97 0 0 78.54 97.93 78.54 48.97 0"/><path class="cls-3" d="M10.27,98.69a.79.79,0,0,1-.08-1.58,60.65,60.65,0,0,0,19.44-5.17c4.06-1.91,9.61-4.52,12.12-9.26A10.61,10.61,0,0,0,42.69,75a.79.79,0,1,1,1.54-.38,12.37,12.37,0,0,1-1.08,8.8c-2.75,5.21-8.58,8-12.84,10a61.94,61.94,0,0,1-19.95,5.31Z"/><path class="cls-3" d="M21,103.36h-.07a.78.78,0,0,1-.72-.85,12.45,12.45,0,0,1,8.17-10,.79.79,0,0,1,1,.45.8.8,0,0,1-.44,1,10.88,10.88,0,0,0-7.17,8.63A.79.79,0,0,1,21,103.36Z"/><path class="cls-3" d="M51.29,107.48a.81.81,0,0,1-.51-.18c-.13-.11-12.67-10.83-8.4-26a.79.79,0,1,1,1.52.43c-4,14.2,7.78,24.28,7.9,24.38a.8.8,0,0,1,.1,1.12A.78.78,0,0,1,51.29,107.48Z"/><path class="cls-3" d="M26.32,104.79a.77.77,0,0,1-.69-.42A.78.78,0,0,1,26,103.3C49.76,90.53,47.89,75.08,47.86,74.92a.79.79,0,0,1,1.57-.23c.1.68,2.13,16.67-22.73,30A.75.75,0,0,1,26.32,104.79Z"/><path class="cls-3" d="M71.91,104.53a.76.76,0,0,1-.4-.11C45.74,89.21,48.07,75.51,48.19,74.93a.79.79,0,0,1,1.55.3h0c0,.13-2.12,13.25,22.58,27.83a.8.8,0,0,1,.28,1.08A.79.79,0,0,1,71.91,104.53Z"/><path class="cls-3" d="M39,106.92a.79.79,0,0,1-.4-1.47C58.08,94,54.18,76.81,54,76.08a.79.79,0,1,1,1.54-.37c.05.19,4.38,19.08-16.19,31.11A.79.79,0,0,1,39,106.92Z"/><path class="cls-3" d="M87.66,98.43h-.11c-1.27-.17-31.09-4.17-33.14-18.94A.79.79,0,0,1,56,79.28c1.88,13.57,31.48,17.54,31.77,17.57a.8.8,0,0,1,.69.89A.79.79,0,0,1,87.66,98.43Z"/><path class="cls-3" d="M76.41,103.06h-.06a.8.8,0,0,1-.73-.85c0-.25.24-5.42-8.29-9.4a.81.81,0,0,1-.39-1.06A.79.79,0,0,1,68,91.37c9.62,4.49,9.22,10.7,9.2,11A.79.79,0,0,1,76.41,103.06Z"/><path class="cls-3" d="M59.82,106.92a.82.82,0,0,1-.43-.12.8.8,0,0,1-.24-1.1c.14-.21,3.12-5.07-1.73-11.82A.79.79,0,0,1,58.7,93c5.52,7.66,1.94,13.36,1.79,13.6A.79.79,0,0,1,59.82,106.92Z"/><path class="cls-1" d="M61.47,47.28a2.64,2.64,0,0,0-2.08-1,2.58,2.58,0,0,0-1.2.28A2.64,2.64,0,0,0,57,47.83,2.41,2.41,0,0,0,57,50.1l-2.69,2.66A1.77,1.77,0,0,0,53.83,54v5.37h1.46V54.63a1.5,1.5,0,0,1,.44-1.06L58,51.23a2.91,2.91,0,0,0,1.44.39,2.67,2.67,0,0,0,2.08-4.34ZM43.61,52.7,41,50.16c.45-1.74.11-2.87-1.13-3.56a2.52,2.52,0,0,0-1.3-.34,2.7,2.7,0,0,0-2,.84,2.74,2.74,0,0,0-.27,3.3,2.51,2.51,0,0,0,1.37,1.06,2.62,2.62,0,0,0,.87.16,2,2,0,0,0,1.28-.41l2.4,2.38a1.51,1.51,0,0,1,.43,1.06v4.71h1.45V53.92A1.77,1.77,0,0,0,43.61,52.7Zm11.68,1.93a1.5,1.5,0,0,1,.44-1.06L58,51.23a2.91,2.91,0,0,0,1.44.39,2.67,2.67,0,0,0,0-5.34,2.58,2.58,0,0,0-1.2.28A2.64,2.64,0,0,0,57,47.83,2.41,2.41,0,0,0,57,50.1l-2.69,2.66A1.77,1.77,0,0,0,53.83,54v5.37h1.46Zm8.56.4a2.65,2.65,0,0,0-1.9-.79,2.69,2.69,0,0,0-1.45.41,2.58,2.58,0,0,0-.87,3.49l-5.29,5.27a1.76,1.76,0,0,0-.51,1.23v8.29H55.3V65.32a1.53,1.53,0,0,1,.43-1l4.9-5a2.94,2.94,0,0,0,1.33.33A2.68,2.68,0,0,0,63.85,55ZM49,43a2.65,2.65,0,0,0-2.62,2.06,2.61,2.61,0,0,0,.18,1.74,2.32,2.32,0,0,0,1.66,1.37V72.93h1.52l-.06-24.64c1.52-.69,2.2-1.8,1.93-3.12A2.69,2.69,0,0,0,49,43Zm-8,7.16c.45-1.74.11-2.87-1.13-3.56a2.52,2.52,0,0,0-1.3-.34,2.7,2.7,0,0,0-2,.84,2.74,2.74,0,0,0-.27,3.3,2.51,2.51,0,0,0,1.37,1.06,2.62,2.62,0,0,0,.87.16,2,2,0,0,0,1.28-.41l2.4,2.38a1.51,1.51,0,0,1,.43,1.06v4.71h1.45V53.92a1.77,1.77,0,0,0-.5-1.22Zm14.31,4.47a1.5,1.5,0,0,1,.44-1.06L58,51.23a2.91,2.91,0,0,0,1.44.39,2.67,2.67,0,0,0,0-5.34,2.58,2.58,0,0,0-1.2.28A2.64,2.64,0,0,0,57,47.83,2.41,2.41,0,0,0,57,50.1l-2.69,2.66A1.77,1.77,0,0,0,53.83,54v5.37h1.46Zm8.56.4a2.65,2.65,0,0,0-1.9-.79,2.69,2.69,0,0,0-1.45.41,2.58,2.58,0,0,0-.87,3.49l-5.29,5.27a1.76,1.76,0,0,0-.51,1.23v8.29H55.3V65.32a1.53,1.53,0,0,1,.43-1l4.9-5a2.94,2.94,0,0,0,1.33.33A2.68,2.68,0,0,0,63.85,55ZM49,43a2.65,2.65,0,0,0-2.62,2.06,2.61,2.61,0,0,0,.18,1.74,2.32,2.32,0,0,0,1.66,1.37V72.93h1.52l-.06-24.64c1.52-.69,2.2-1.8,1.93-3.12A2.69,2.69,0,0,0,49,43Zm-8,7.16c.45-1.74.11-2.87-1.13-3.56a2.52,2.52,0,0,0-1.3-.34,2.7,2.7,0,0,0-2,.84,2.74,2.74,0,0,0-.27,3.3,2.51,2.51,0,0,0,1.37,1.06,2.62,2.62,0,0,0,.87.16,2,2,0,0,0,1.28-.41l2.4,2.38a1.51,1.51,0,0,1,.43,1.06v4.71h1.45V53.92a1.77,1.77,0,0,0-.5-1.22Zm-2.64,8a2.68,2.68,0,0,0-.82-3.5,2.67,2.67,0,0,0-3.8,3.61,2.48,2.48,0,0,0,2.17,1.22,2.8,2.8,0,0,0,1.31-.3l5,5a1.55,1.55,0,0,1,.43,1.06v7.63h1.45V64.57a1.79,1.79,0,0,0-.5-1.22Z"/><path class="cls-1" d="M49,4.34,4.14,76.24H93.79ZM10.13,72.93,49,10.61,87.8,72.93Z"/></g></g></svg>